<?xml version="1.0" encoding="UTF-8"?>
<svg xmlns="http://www.w3.org/2000/svg" xmlns:xlink="http://www.w3.org/1999/xlink" id="isler_india_white" width="260" height="47.167" viewBox="0 0 260 47.167">
  <defs>
    <clipPath id="clip-path">
      <rect id="Rectangle_23" data-name="Rectangle 23" width="260" height="47.167" fill="none"></rect>
    </clipPath>
    <clipPath id="clip-path-4">
      <rect id="Rectangle_19" data-name="Rectangle 19" width="25.538" height="23.714" fill="none"></rect>
    </clipPath>
    <clipPath id="clip-path-5">
      <rect id="Rectangle_20" data-name="Rectangle 20" width="45.343" height="23.453" fill="none"></rect>
    </clipPath>
    <clipPath id="clip-path-6">
      <rect id="Rectangle_21" data-name="Rectangle 21" width="25.277" height="23.714" fill="none"></rect>
    </clipPath>
  </defs>
  <g id="Group_149" data-name="Group 149" clip-path="url(#clip-path)">
    <rect id="Rectangle_14" data-name="Rectangle 14" width="5.392" height="20.653" transform="translate(71.269 3.309)" fill="#fff"></rect>
    <g id="Group_137" data-name="Group 137">
      <g id="Group_136" data-name="Group 136" clip-path="url(#clip-path)">
        <path id="Path_72" data-name="Path 72" d="M236.807,13.169c-1.3,0-2.151.472-2.151,1.414,0,3.418,10.872,1.473,10.872,8.9,0,4.213-3.712,6.364-8.309,6.364a15.518,15.518,0,0,1-9.516-3.3l2.092-4.213a13.185,13.185,0,0,0,7.483,3.123c1.591,0,2.593-.589,2.593-1.679,0-3.506-10.871-1.385-10.871-8.692,0-3.86,3.27-6.305,8.249-6.305a15.843,15.843,0,0,1,8.25,2.328l-2.033,4.272a16.057,16.057,0,0,0-6.658-2.21" transform="translate(-147.978 -5.705)" fill="#fff"></path>
        <path id="Path_73" data-name="Path 73" d="M293.514,9.452V25.509h8.75v4.6H288.123V9.452Z" transform="translate(-187.243 -6.143)" fill="#fff"></path>
        <path id="Path_74" data-name="Path 74" d="M353.474,9.452v4.3h-10.9v3.859h9.84v4.272l-9.84.03V25.8h11.2v4.3H337.181V9.452Z" transform="translate(-219.125 -6.143)" fill="#fff"></path>
        <path id="Path_75" data-name="Path 75" d="M408.069,30.105l-3.005-5.715h-4.006v5.715h-5.392V9.452h9.281c5.48,0,8.6,2.652,8.6,7.248,0,3.123-1.3,5.421-3.683,6.658l4.3,6.747Zm-7.012-10.017h3.918c2.18,0,3.447-1.12,3.447-3.211,0-2.033-1.267-3.123-3.447-3.123h-3.918Z" transform="translate(-257.132 -6.143)" fill="#fff"></path>
        <rect id="Rectangle_15" data-name="Rectangle 15" width="5.392" height="20.653" transform="translate(169.881 3.309)" fill="#fff"></rect>
        <path id="Path_76" data-name="Path 76" d="M518.47,9.452l9.369,12.433V9.452h5.009V30.105h-4.714l-9.369-12.374V30.105h-5.038V9.452Z" transform="translate(-333.857 -6.143)" fill="#fff"></path>
        <path id="Path_77" data-name="Path 77" d="M601.438,19.764c0,6.158-4.508,10.341-11.2,10.341h-8.692V9.452h8.9c6.54,0,10.989,4.184,10.989,10.312m-5.51.059c0-3.565-2.328-5.981-5.6-5.981h-3.388v11.9H590.6c3.123,0,5.333-2.386,5.333-5.922" transform="translate(-377.935 -6.143)" fill="#fff"></path>
        <rect id="Rectangle_16" data-name="Rectangle 16" width="5.392" height="20.653" transform="translate(226.774 3.309)" fill="#fff"></rect>
        <path id="Path_78" data-name="Path 78" d="M685.986,26.452h-8.927l-1.444,3.653h-5.539l8.868-20.653h5.539l8.662,20.653H687.4Zm-1.591-4.125-2.829-7.366-2.888,7.366Z" transform="translate(-435.465 -6.143)" fill="#fff"></path>
        <path id="Path_79" data-name="Path 79" d="M205.184,99.538V89.746h4.342a5.781,5.781,0,0,1,1.99.264,2.179,2.179,0,0,1,1.089.932,2.782,2.782,0,0,1,.407,1.476,2.462,2.462,0,0,1-.675,1.757,3.412,3.412,0,0,1-2.084.908,3.352,3.352,0,0,1,.781.488,6.737,6.737,0,0,1,1.076,1.3l1.7,2.665h-1.629l-1.3-2.037q-.568-.882-.935-1.349a2.941,2.941,0,0,0-.658-.655,1.954,1.954,0,0,0-.591-.26,3.863,3.863,0,0,0-.722-.047h-1.5v4.348Zm1.3-5.47h2.785a4.175,4.175,0,0,0,1.389-.184,1.476,1.476,0,0,0,.762-.588,1.588,1.588,0,0,0,.26-.878,1.46,1.46,0,0,0-.5-1.142,2.359,2.359,0,0,0-1.593-.447h-3.1Z" transform="translate(-133.344 -58.324)" fill="#fff"></path>
        <path id="Path_80" data-name="Path 80" d="M237.718,101.965l1.242.154a3.03,3.03,0,0,1-1.089,1.69,3.688,3.688,0,0,1-4.5-.357,3.746,3.746,0,0,1-.912-2.689,3.921,3.921,0,0,1,.922-2.779A3.121,3.121,0,0,1,235.774,97a3.032,3.032,0,0,1,2.324.968,3.848,3.848,0,0,1,.9,2.725q0,.107-.007.321H233.7a2.726,2.726,0,0,0,.661,1.79,1.968,1.968,0,0,0,1.483.621,1.84,1.84,0,0,0,1.129-.347,2.308,2.308,0,0,0,.742-1.109m-3.948-1.944h3.961a2.4,2.4,0,0,0-.454-1.343,1.842,1.842,0,0,0-1.489-.695,1.908,1.908,0,0,0-1.392.555,2.192,2.192,0,0,0-.625,1.482" transform="translate(-151.07 -63.035)" fill="#fff"></path>
        <path id="Path_81" data-name="Path 81" d="M256.657,104.547l-2.7-7.094h1.269l1.523,4.248q.247.688.454,1.429.16-.561.448-1.349l1.576-4.328h1.236l-2.685,7.094Z" transform="translate(-165.041 -63.332)" fill="#fff"></path>
        <path id="Path_82" data-name="Path 82" d="M275,100.7a3.656,3.656,0,0,1,1.1-2.919A3.3,3.3,0,0,1,278.324,97a3.183,3.183,0,0,1,2.391.959,3.647,3.647,0,0,1,.928,2.648,4.7,4.7,0,0,1-.411,2.154,2.905,2.905,0,0,1-1.2,1.219,3.479,3.479,0,0,1-1.713.435,3.189,3.189,0,0,1-2.408-.955A3.815,3.815,0,0,1,275,100.7m1.236,0a3.02,3.02,0,0,0,.595,2.04,1.979,1.979,0,0,0,2.986,0,3.094,3.094,0,0,0,.595-2.077,2.931,2.931,0,0,0-.6-1.994,1.982,1.982,0,0,0-2.982,0,3.008,3.008,0,0,0-.595,2.037" transform="translate(-178.713 -63.034)" fill="#fff"></path>
        <rect id="Rectangle_17" data-name="Rectangle 17" width="1.202" height="9.792" transform="translate(104.559 31.422)" fill="#fff"></rect>
        <path id="Path_83" data-name="Path 83" d="M312.691,104.547V103.5a2.6,2.6,0,0,1-2.251,1.2,2.88,2.88,0,0,1-1.172-.24,1.935,1.935,0,0,1-.808-.6,2.259,2.259,0,0,1-.371-.892,6.1,6.1,0,0,1-.074-1.122v-4.4h1.2v3.934a7.013,7.013,0,0,0,.074,1.27,1.253,1.253,0,0,0,.481.744,1.491,1.491,0,0,0,.909.271,1.98,1.98,0,0,0,1.015-.277,1.542,1.542,0,0,0,.672-.755,3.787,3.787,0,0,0,.2-1.386v-3.8h1.2v7.094Z" transform="translate(-200.171 -63.332)" fill="#fff"></path>
        <path id="Path_84" data-name="Path 84" d="M331.92,98.871l.174,1.062a4.5,4.5,0,0,1-.908.107,2.056,2.056,0,0,1-1.016-.207,1.161,1.161,0,0,1-.507-.544,4.3,4.3,0,0,1-.147-1.419V93.788h-.882v-.936h.882V91.1l1.2-.721v2.478h1.209v.936h-1.209v4.148a2.1,2.1,0,0,0,.063.661.5.5,0,0,0,.207.234.8.8,0,0,0,.411.087,3.913,3.913,0,0,0,.528-.047" transform="translate(-213.571 -58.732)" fill="#fff"></path>
        <path id="Path_85" data-name="Path 85" d="M342.1,89.745h1.2v1.383h-1.2Zm0,2.7h1.2v7.094h-1.2Z" transform="translate(-222.322 -58.323)" fill="#fff"></path>
        <path id="Path_86" data-name="Path 86" d="M350.186,100.7a3.656,3.656,0,0,1,1.1-2.919A3.3,3.3,0,0,1,353.513,97a3.183,3.183,0,0,1,2.391.959,3.645,3.645,0,0,1,.929,2.648,4.7,4.7,0,0,1-.411,2.154,2.905,2.905,0,0,1-1.2,1.219,3.481,3.481,0,0,1-1.713.435,3.188,3.188,0,0,1-2.408-.955,3.815,3.815,0,0,1-.919-2.752m1.236,0a3.018,3.018,0,0,0,.595,2.04,1.979,1.979,0,0,0,2.986,0,3.1,3.1,0,0,0,.595-2.077,2.932,2.932,0,0,0-.6-1.994,1.981,1.981,0,0,0-2.982,0,3.006,3.006,0,0,0-.595,2.037" transform="translate(-227.577 -63.034)" fill="#fff"></path>
        <path id="Path_87" data-name="Path 87" d="M373.9,104.25V97.156h1.082v1.008A2.55,2.55,0,0,1,377.236,97a2.96,2.96,0,0,1,1.179.23,1.856,1.856,0,0,1,.8.6,2.326,2.326,0,0,1,.374.889,6.924,6.924,0,0,1,.067,1.168v4.362h-1.2V99.935a3.242,3.242,0,0,0-.14-1.1,1.158,1.158,0,0,0-.5-.581,1.583,1.583,0,0,0-.838-.217,1.947,1.947,0,0,0-1.326.488,2.4,2.4,0,0,0-.558,1.85v3.874Z" transform="translate(-242.986 -63.035)" fill="#fff"></path>
        <path id="Path_88" data-name="Path 88" d="M396.347,89.745h1.2v1.383h-1.2Zm0,2.7h1.2v7.094h-1.2Z" transform="translate(-257.575 -58.323)" fill="#fff"></path>
        <path id="Path_89" data-name="Path 89" d="M403.9,104.547v-.975l4.515-5.183q-.768.04-1.356.04h-2.892v-.975h5.8v.795l-3.841,4.5-.741.822q.807-.06,1.516-.06h3.279v1.035Z" transform="translate(-262.484 -63.332)" fill="#fff"></path>
        <path id="Path_90" data-name="Path 90" d="M425.969,89.745h1.2v1.383h-1.2Zm0,2.7h1.2v7.094h-1.2Z" transform="translate(-276.826 -58.323)" fill="#fff"></path>
        <path id="Path_91" data-name="Path 91" d="M435.335,104.25V97.156h1.082v1.008A2.55,2.55,0,0,1,438.674,97a2.963,2.963,0,0,1,1.179.23,1.857,1.857,0,0,1,.8.6,2.321,2.321,0,0,1,.374.889,6.92,6.92,0,0,1,.067,1.168v4.362h-1.2V99.935a3.252,3.252,0,0,0-.14-1.1,1.159,1.159,0,0,0-.5-.581,1.583,1.583,0,0,0-.838-.217,1.947,1.947,0,0,0-1.326.488,2.4,2.4,0,0,0-.558,1.85v3.874Z" transform="translate(-282.913 -63.035)" fill="#fff"></path>
        <path id="Path_92" data-name="Path 92" d="M456.69,104.837l1.169.174a1.114,1.114,0,0,0,.408.788,2,2,0,0,0,1.222.334,2.147,2.147,0,0,0,1.289-.334,1.646,1.646,0,0,0,.615-.936,7.664,7.664,0,0,0,.087-1.542,2.474,2.474,0,0,1-1.964.928,2.677,2.677,0,0,1-2.264-1.056,4.06,4.06,0,0,1-.8-2.531,4.717,4.717,0,0,1,.368-1.874,2.94,2.94,0,0,1,1.065-1.326,2.877,2.877,0,0,1,1.64-.468,2.543,2.543,0,0,1,2.071,1.015v-.855H462.7v6.132a5.824,5.824,0,0,1-.337,2.348,2.467,2.467,0,0,1-1.069,1.092,3.7,3.7,0,0,1-1.8.4,3.392,3.392,0,0,1-2.05-.571,1.929,1.929,0,0,1-.755-1.72m1-4.262a3.079,3.079,0,0,0,.554,2.037,1.829,1.829,0,0,0,2.779,0,2.977,2.977,0,0,0,.561-2A2.908,2.908,0,0,0,461,98.652a1.787,1.787,0,0,0-1.393-.662,1.734,1.734,0,0,0-1.362.652,2.893,2.893,0,0,0-.561,1.933" transform="translate(-296.634 -63.034)" fill="#fff"></path>
        <path id="Path_93" data-name="Path 93" d="M492.081,99.538V89.746h1.95l2.318,6.933q.32.968.468,1.45.166-.535.521-1.57l2.344-6.813h1.743v9.792h-1.249v-8.2l-2.845,8.2h-1.169L493.33,91.2v8.336Z" transform="translate(-319.79 -58.324)" fill="#fff"></path>
        <path id="Path_94" data-name="Path 94" d="M528.877,103.374a4.478,4.478,0,0,1-1.286.8,3.717,3.717,0,0,1-1.326.234,2.581,2.581,0,0,1-1.8-.571,1.885,1.885,0,0,1-.628-1.459,1.939,1.939,0,0,1,.237-.952,1.96,1.96,0,0,1,.621-.691,2.931,2.931,0,0,1,.865-.394,8.645,8.645,0,0,1,1.069-.18,11.014,11.014,0,0,0,2.144-.414c0-.165.006-.269.006-.314a1.327,1.327,0,0,0-.341-1.035,2.011,2.011,0,0,0-1.369-.408,2.126,2.126,0,0,0-1.252.3,1.816,1.816,0,0,0-.6,1.052l-1.175-.16a2.912,2.912,0,0,1,.528-1.219,2.314,2.314,0,0,1,1.062-.715,4.741,4.741,0,0,1,1.61-.25,4.267,4.267,0,0,1,1.476.214,1.95,1.95,0,0,1,.835.538,1.9,1.9,0,0,1,.374.818,6.851,6.851,0,0,1,.06,1.109v1.6a17.055,17.055,0,0,0,.077,2.121,2.671,2.671,0,0,0,.3.852h-1.256a2.543,2.543,0,0,1-.241-.875m-.1-2.685a8.819,8.819,0,0,1-1.964.454,4.538,4.538,0,0,0-1.049.24,1.041,1.041,0,0,0-.474.391,1.06,1.06,0,0,0,.2,1.372,1.566,1.566,0,0,0,1.066.321,2.476,2.476,0,0,0,1.235-.3,1.874,1.874,0,0,0,.8-.832,2.9,2.9,0,0,0,.194-1.2Z" transform="translate(-340.43 -63.034)" fill="#fff"></path>
        <path id="Path_95" data-name="Path 95" d="M547.438,104.25V97.156h1.082v1.008A2.55,2.55,0,0,1,550.777,97a2.959,2.959,0,0,1,1.179.23,1.856,1.856,0,0,1,.805.6,2.326,2.326,0,0,1,.374.889,6.92,6.92,0,0,1,.067,1.168v4.362H552V99.935a3.241,3.241,0,0,0-.14-1.1,1.158,1.158,0,0,0-.5-.581,1.583,1.583,0,0,0-.838-.217,1.947,1.947,0,0,0-1.326.488,2.4,2.4,0,0,0-.558,1.85v3.874Z" transform="translate(-355.766 -63.035)" fill="#fff"></path>
        <path id="Path_96" data-name="Path 96" d="M574.469,104.547V103.5a2.6,2.6,0,0,1-2.251,1.2,2.876,2.876,0,0,1-1.172-.24,1.936,1.936,0,0,1-.808-.6,2.265,2.265,0,0,1-.37-.892,6.1,6.1,0,0,1-.073-1.122v-4.4h1.2v3.934a6.968,6.968,0,0,0,.074,1.27,1.25,1.25,0,0,0,.481.744,1.49,1.49,0,0,0,.909.271,1.982,1.982,0,0,0,1.015-.277,1.542,1.542,0,0,0,.671-.755,3.787,3.787,0,0,0,.2-1.386v-3.8h1.2v7.094Z" transform="translate(-370.293 -63.332)" fill="#fff"></path>
        <path id="Path_97" data-name="Path 97" d="M591.15,99.228V93.07h-1.062v-.935h1.062V91.38a3.315,3.315,0,0,1,.127-1.062,1.538,1.538,0,0,1,.611-.758,2.2,2.2,0,0,1,1.226-.291,5.915,5.915,0,0,1,1.122.12l-.18,1.049a4.083,4.083,0,0,0-.708-.067,1.052,1.052,0,0,0-.775.234,1.268,1.268,0,0,0-.227.875v.654h1.383v.935h-1.383v6.158Z" transform="translate(-383.483 -58.014)" fill="#fff"></path>
        <path id="Path_98" data-name="Path 98" d="M607.731,103.374a4.478,4.478,0,0,1-1.286.8,3.718,3.718,0,0,1-1.326.234,2.58,2.58,0,0,1-1.8-.571,1.885,1.885,0,0,1-.628-1.459,1.94,1.94,0,0,1,.237-.952,1.963,1.963,0,0,1,.621-.691,2.93,2.93,0,0,1,.865-.394,8.631,8.631,0,0,1,1.069-.18,11.006,11.006,0,0,0,2.144-.414c0-.165.007-.269.007-.314A1.327,1.327,0,0,0,607.3,98.4a2.011,2.011,0,0,0-1.369-.408,2.126,2.126,0,0,0-1.252.3,1.817,1.817,0,0,0-.6,1.052l-1.175-.16a2.918,2.918,0,0,1,.527-1.219,2.315,2.315,0,0,1,1.062-.715A4.739,4.739,0,0,1,606.1,97a4.268,4.268,0,0,1,1.476.214,1.946,1.946,0,0,1,.835.538,1.894,1.894,0,0,1,.374.818,6.8,6.8,0,0,1,.06,1.109v1.6a17.055,17.055,0,0,0,.077,2.121,2.678,2.678,0,0,0,.3.852h-1.256a2.543,2.543,0,0,1-.241-.875m-.1-2.685a8.815,8.815,0,0,1-1.964.454,4.546,4.546,0,0,0-1.049.24,1.044,1.044,0,0,0-.474.391,1.061,1.061,0,0,0,.2,1.372,1.565,1.565,0,0,0,1.066.321,2.477,2.477,0,0,0,1.235-.3,1.874,1.874,0,0,0,.8-.832,2.9,2.9,0,0,0,.194-1.2Z" transform="translate(-391.676 -63.034)" fill="#fff"></path>
        <path id="Path_99" data-name="Path 99" d="M630.239,101.65l1.183.154a3.069,3.069,0,0,1-.992,1.914,2.889,2.889,0,0,1-1.96.691,3.045,3.045,0,0,1-2.341-.952,3.862,3.862,0,0,1-.885-2.728,4.936,4.936,0,0,1,.381-2.01,2.657,2.657,0,0,1,1.159-1.293A3.436,3.436,0,0,1,628.476,97a2.945,2.945,0,0,1,1.89.584,2.682,2.682,0,0,1,.942,1.66l-1.169.18a1.94,1.94,0,0,0-.591-1.075,1.53,1.53,0,0,0-1.026-.361,1.867,1.867,0,0,0-1.476.651,3.092,3.092,0,0,0-.568,2.06,3.2,3.2,0,0,0,.548,2.077,1.783,1.783,0,0,0,1.43.648,1.682,1.682,0,0,0,1.182-.435,2.152,2.152,0,0,0,.6-1.336" transform="translate(-406.329 -63.034)" fill="#fff"></path>
        <path id="Path_100" data-name="Path 100" d="M647.927,98.871l.174,1.062a4.5,4.5,0,0,1-.908.107,2.056,2.056,0,0,1-1.016-.207,1.16,1.16,0,0,1-.507-.544,4.3,4.3,0,0,1-.147-1.419V93.788h-.882v-.936h.882V91.1l1.2-.721v2.478h1.209v.936h-1.209v4.148a2.1,2.1,0,0,0,.063.661.5.5,0,0,0,.207.234.8.8,0,0,0,.411.087,3.913,3.913,0,0,0,.528-.047" transform="translate(-418.935 -58.732)" fill="#fff"></path>
        <path id="Path_101" data-name="Path 101" d="M662.687,104.547V103.5a2.6,2.6,0,0,1-2.251,1.2,2.876,2.876,0,0,1-1.172-.24,1.934,1.934,0,0,1-.808-.6,2.264,2.264,0,0,1-.37-.892,6.1,6.1,0,0,1-.073-1.122v-4.4h1.2v3.934a6.968,6.968,0,0,0,.074,1.27,1.25,1.25,0,0,0,.481.744,1.49,1.49,0,0,0,.909.271,1.982,1.982,0,0,0,1.015-.277,1.541,1.541,0,0,0,.671-.755,3.785,3.785,0,0,0,.2-1.386v-3.8h1.2v7.094Z" transform="translate(-427.624 -63.332)" fill="#fff"></path>
        <path id="Path_102" data-name="Path 102" d="M680.481,104.25V97.156h1.082v1.075a2.93,2.93,0,0,1,.765-1A1.333,1.333,0,0,1,683.1,97a2.347,2.347,0,0,1,1.236.387l-.414,1.116a1.72,1.72,0,0,0-.882-.26,1.148,1.148,0,0,0-.708.237,1.287,1.287,0,0,0-.447.658,4.676,4.676,0,0,0-.2,1.4v3.714Z" transform="translate(-442.227 -63.035)" fill="#fff"></path>
        <path id="Path_103" data-name="Path 103" d="M694.252,89.745h1.2v1.383h-1.2Zm0,2.7h1.2v7.094h-1.2Z" transform="translate(-451.176 -58.323)" fill="#fff"></path>
        <path id="Path_104" data-name="Path 104" d="M703.618,104.25V97.156H704.7v1.008A2.55,2.55,0,0,1,706.958,97a2.96,2.96,0,0,1,1.179.23,1.856,1.856,0,0,1,.8.6,2.326,2.326,0,0,1,.374.889,6.913,6.913,0,0,1,.067,1.168v4.362h-1.2V99.935a3.242,3.242,0,0,0-.14-1.1,1.159,1.159,0,0,0-.5-.581,1.583,1.583,0,0,0-.838-.217,1.947,1.947,0,0,0-1.326.488,2.4,2.4,0,0,0-.558,1.85v3.874Z" transform="translate(-457.263 -63.035)" fill="#fff"></path>
        <path id="Path_105" data-name="Path 105" d="M724.973,104.837l1.169.174a1.115,1.115,0,0,0,.408.788,2,2,0,0,0,1.222.334,2.147,2.147,0,0,0,1.289-.334,1.642,1.642,0,0,0,.614-.936,7.625,7.625,0,0,0,.087-1.542,2.475,2.475,0,0,1-1.964.928,2.677,2.677,0,0,1-2.265-1.056,4.06,4.06,0,0,1-.8-2.531,4.716,4.716,0,0,1,.368-1.874,2.938,2.938,0,0,1,1.066-1.326A2.875,2.875,0,0,1,727.8,97a2.543,2.543,0,0,1,2.071,1.015v-.855h1.109v6.132a5.821,5.821,0,0,1-.337,2.348,2.466,2.466,0,0,1-1.069,1.092,3.7,3.7,0,0,1-1.8.4,3.392,3.392,0,0,1-2.05-.571,1.929,1.929,0,0,1-.755-1.72m1-4.262a3.079,3.079,0,0,0,.554,2.037,1.829,1.829,0,0,0,2.779,0,2.977,2.977,0,0,0,.561-2,2.908,2.908,0,0,0-.578-1.964,1.787,1.787,0,0,0-1.393-.662,1.734,1.734,0,0,0-1.362.652,2.893,2.893,0,0,0-.561,1.933" transform="translate(-470.984 -63.034)" fill="#fff"></path>
      </g>
    </g>
    <path id="Path_106" data-name="Path 106" d="M112.275,0l-2.866,3.127,19.544,20.326L109.409,44.039l2.866,3.127,22.671-23.714Z" transform="translate(-71.102 0)" fill="#0097d9"></path>
    <path id="Path_107" data-name="Path 107" d="M0,67.729,22.671,91.182,45.342,67.729Z" transform="translate(0 -44.015)" fill="#0099db"></path>
    <path id="Path_108" data-name="Path 108" d="M86.225,0,83.358,3.127,102.9,23.713,83.358,44.039l2.866,3.127,22.411-23.714Z" transform="translate(-54.172 0)" fill="#0097d9"></path>
    <path id="Path_109" data-name="Path 109" d="M22.671,0,1.948,21.675,0,23.713,22.671,47.166,45.342,23.713Z" transform="translate(0 0)" fill="#0097d9"></path>
    <g id="Group_148" data-name="Group 148">
      <g id="Group_147" data-name="Group 147" clip-path="url(#clip-path)">
        <g id="Group_140" data-name="Group 140" transform="translate(38.307 23.453)" opacity="0.6" style="isolation: isolate">
          <g id="Group_139" data-name="Group 139">
            <g id="Group_138" data-name="Group 138" clip-path="url(#clip-path-4)">
              <path id="Path_110" data-name="Path 110" d="M128.952,66.984,109.408,87.571l2.866,3.127,22.671-23.714" transform="translate(-109.408 -66.984)" fill="#007ac2"></path>
            </g>
          </g>
        </g>
        <g id="Group_143" data-name="Group 143" transform="translate(0 23.713)" opacity="0.6" style="isolation: isolate">
          <g id="Group_142" data-name="Group 142">
            <g id="Group_141" data-name="Group 141" clip-path="url(#clip-path-5)">
              <path id="Path_111" data-name="Path 111" d="M45.343,67.728,22.671,91.182,0,67.728" transform="translate(0 -67.728)" fill="#007ac2"></path>
            </g>
          </g>
        </g>
        <g id="Group_146" data-name="Group 146" transform="translate(29.186 23.453)" opacity="0.6" style="isolation: isolate">
          <g id="Group_145" data-name="Group 145">
            <g id="Group_144" data-name="Group 144" clip-path="url(#clip-path-6)">
              <path id="Path_112" data-name="Path 112" d="M102.9,66.984,83.358,87.571,86.224,90.7l22.411-23.714" transform="translate(-83.358 -66.984)" fill="#007ac2"></path>
            </g>
          </g>
        </g>
        <path id="Path_113" data-name="Path 113" d="M58.448,54.05h-.459V44.868a.459.459,0,0,0-.735-.367l-2.939,2.2V44.869a.459.459,0,0,0-.735-.367l-2.939,2.2V44.869a.453.453,0,0,0-.243-.4.442.442,0,0,0-.468.023l-3.383,2.254-.4-3.719a.462.462,0,0,0,.363-.45V40.738a.459.459,0,0,0-.459-.459H41.462a.459.459,0,0,0-.459.459v1.836a.462.462,0,0,0,.363.45L40.181,54.052h-.1a.459.459,0,0,0,0,.918H58.448a.459.459,0,1,0,0-.918ZM41.92,41.2h3.673v.918H41.92ZM45.592,54.05H41.108l1.18-11.018h2.939l.462,4.32.716,6.7Zm1.74,0-.675-6.275,3.067-2.047v1.9a.459.459,0,0,0,.735.367l2.939-2.2v1.836a.459.459,0,0,0,.735.367l2.939-2.2V54.05Zm7.442-4.589H52.938a.459.459,0,0,0-.459.459v1.836a.459.459,0,0,0,.459.459h1.836a.459.459,0,0,0,.459-.459V49.919a.459.459,0,0,0-.459-.459M54.315,51.3H53.4v-.918h.918ZM51.1,49.46H49.265a.459.459,0,0,0-.459.459v1.836a.459.459,0,0,0,.459.459H51.1a.459.459,0,0,0,.459-.459V49.919a.459.459,0,0,0-.459-.459M50.643,51.3h-.918v-.918h.918ZM43.432,39.914a.459.459,0,0,1,0-.649l.459-.459a1.135,1.135,0,0,1,1.568,0,.16.16,0,0,0,.268,0,1.137,1.137,0,0,1,1.569,0,.16.16,0,0,0,.222.047.164.164,0,0,0,.047-.047,1.136,1.136,0,0,1,1.568,0,.16.16,0,0,0,.222.047.164.164,0,0,0,.047-.047.459.459,0,0,1,.65.649,1.137,1.137,0,0,1-1.568,0,.16.16,0,0,0-.222-.047.164.164,0,0,0-.047.047,1.136,1.136,0,0,1-1.568,0,.16.16,0,0,0-.222-.047.164.164,0,0,0-.047.047,1.136,1.136,0,0,1-1.568,0,.161.161,0,0,0-.222-.047.163.163,0,0,0-.046.047l-.459.459a.459.459,0,0,1-.649,0Z" transform="translate(-25.752 -25.015)" fill="#fff"></path>
      </g>
    </g>
  </g>
</svg>
